<?xml version="1.0" encoding="UTF-8" standalone="no"?>
<svg
   xmlns:dc="http://purl.org/dc/elements/1.1/"
   xmlns:cc="http://creativecommons.org/ns#"
   xmlns:rdf="http://www.w3.org/1999/02/22-rdf-syntax-ns#"
   xmlns:svg="http://www.w3.org/2000/svg"
   xmlns="http://www.w3.org/2000/svg"
   xmlns:sodipodi="http://sodipodi.sourceforge.net/DTD/sodipodi-0.dtd"
   xmlns:inkscape="http://www.inkscape.org/namespaces/inkscape"
   width="595.28003pt"
   height="740.89001pt"
   viewBox="0 0 595.28 740.89"
   version="1.1"
   id="svg33"
   sodipodi:docname="logo-ani.svg"
   inkscape:version="0.92.3 (2405546, 2018-03-11)">
  <metadata
     id="metadata39">
    <rdf:RDF>
      <cc:Work
         rdf:about="">
        <dc:format>image/svg+xml</dc:format>
        <dc:type
           rdf:resource="http://purl.org/dc/dcmitype/StillImage" />
        <dc:title></dc:title>
      </cc:Work>
    </rdf:RDF>
  </metadata>
  <defs
     id="defs37" />
  <sodipodi:namedview
     pagecolor="#ffffff"
     bordercolor="#666666"
     borderopacity="1"
     objecttolerance="10"
     gridtolerance="10"
     guidetolerance="10"
     inkscape:pageopacity="0"
     inkscape:pageshadow="2"
     inkscape:window-width="1920"
     inkscape:window-height="1017"
     id="namedview35"
     showgrid="false"
     inkscape:zoom="0.21024124"
     inkscape:cx="396.85335"
     inkscape:cy="561.26001"
     inkscape:window-x="-8"
     inkscape:window-y="-8"
     inkscape:window-maximized="1"
     inkscape:current-layer="svg33" />
  <g
     id="surface1"
     transform="matrix(2.3850004,0,0,2.6294671,-407.98682,-740.5251)">
    <path
       style="fill:#3f3f42;fill-opacity:1;fill-rule:nonzero;stroke:none"
       d="m 230.37891,382.74219 -3.86719,15.46093 c 0,0 -30.0625,-3.86328 -39.08203,-36.93359 -9.01563,-33.06641 18.89843,-56.6875 18.89843,-56.6875 0,0 24.47657,-22.76172 57.97657,-9.87891 0,0 33.49609,9.87891 39.08203,44.66407 0,0 13.74219,64.84765 -39.51172,102.21093 v -28.34375 c 0,0 6.87109,-12.88281 7.30078,-24.48046 l -6.01172,3.86718 v -11.16406 l 8.16016,-5.15625 c 0,0 5.15234,-59.26562 -13.3125,-73.4375 0,0 -20.61328,-21.04297 -40.80078,8.16016 0,0 -13.74219,44.23437 11.16797,71.71875"
       id="path2"
       inkscape:connector-curvature="0" />
    <path
       style="fill:#3f3f42;fill-opacity:1;fill-rule:nonzero;stroke:none"
       d="m 210.19141,521.03125 c 0,0 18.03906,-27.05859 30.0625,-39.51172 0,0 -19.75391,-33.49609 -11.59375,-75.15625 0,0 5.58203,-49.81641 41.22656,-64.84766 v 13.3125 c 0,0 -8.16016,17.17969 -9.01953,38.22266 0,0 -3.4336,57.11719 1.71875,67.85547 0,0 30.49218,-21.47266 50.24609,-28.77344 0,0 1.28906,-45.52344 -4.29297,-61.41406 v -27.48438 c 0,0 36.07422,21.90235 38.22266,79.01954 0,0 44.66406,-2.14844 65.70703,4.29296 0,0 -66.56641,-9.44531 -106.50391,15.03125 0,0 -59.26953,31.78125 -84.17578,79.45313 z m 0,0"
       id="path4"
       inkscape:connector-curvature="0" />
    <path
       style="fill:#3f3f42;fill-opacity:1;fill-rule:nonzero;stroke:none"
       d="m 312.40625,451.02734 c 0,0 15.03125,-9.01953 33.49609,-15.03125 0,0 3.86719,31.78125 -27.91406,66.13672 0,0 -29.63281,31.35156 -63.13281,-1.28906 l 10.30859,-12.45313 c 0,0 8.58985,29.63282 28.77344,20.1836 0,0 16.75,-2.57422 18.46875,-57.54688"
       id="path6"
       inkscape:connector-curvature="0" />
    <path
       style="fill:#3f3f42;fill-opacity:1;fill-rule:nonzero;stroke:none"
       d="m 190.00781,461.33594 c 0,0 20.61328,0.42578 35.64453,-10.3086 l 1.71875,9.01953 c 0,0 -18.03515,6.8711 -36.93359,6.44141 z m 0,0"
       id="path8"
       inkscape:connector-curvature="0" />
    <path
       style="fill:#3f3f42;fill-opacity:1;fill-rule:nonzero;stroke:none"
       d="m 187.59766,545.73437 h 3.0625 c 0.0781,0 0.10546,-0.0352 0.082,-0.10156 l -1.4961,-4.10547 c -0.0234,-0.10156 -0.0508,-0.15234 -0.082,-0.15234 -0.0469,0 -0.0781,0.0508 -0.10156,0.15234 l -1.52734,4.08985 c -0.0234,0.0781 0,0.11718 0.0625,0.11718 m 3.375,0.82813 h -3.70704 c -0.0664,0 -0.11328,0.0469 -0.14843,0.13281 l -0.89844,2.37891 c -0.16406,0.4414 -0.25,0.78125 -0.25,1.01562 0,0.34375 0.22266,0.51563 0.66797,0.51563 h 0.24609 c 0.16797,0 0.25,0.043 0.25,0.13281 0,0.10938 -0.0937,0.16406 -0.28125,0.16406 -0.17969,0 -0.47265,-0.008 -0.89062,-0.0234 -0.41407,-0.0156 -0.70703,-0.0274 -0.8711,-0.0274 -0.96484,0.0352 -1.62109,0.0508 -1.96484,0.0508 -0.20703,0 -0.31641,-0.0547 -0.31641,-0.16406 0,-0.0898 0.0703,-0.13281 0.20313,-0.13281 0.17578,0 0.34765,-0.0117 0.51562,-0.0352 0.35157,-0.043 0.64063,-0.19922 0.86328,-0.46484 0.17579,-0.21094 0.35938,-0.55469 0.54688,-1.03125 l 4.17578,-10.44141 c 0.17578,-0.4414 0.33203,-0.66406 0.46484,-0.66406 0.1211,0 0.26172,0.17578 0.41407,0.53125 1.01953,2.57031 2.39453,5.98047 4.125,10.22656 0.46484,1.09766 0.95312,1.69922 1.46484,1.8125 0.19922,0.043 0.42969,0.0664 0.69531,0.0664 0.14453,0 0.21875,0.043 0.21875,0.13281 0,0.0664 -0.0547,0.10938 -0.16797,0.13281 -0.10937,0.0195 -0.3125,0.0312 -0.59765,0.0312 -1.375,0 -2.42188,-0.0117 -3.14453,-0.0312 -0.33203,-0.0117 -0.4961,-0.0547 -0.4961,-0.13281 0,-0.0898 0.0781,-0.14062 0.23047,-0.15234 0.17969,-0.0547 0.22656,-0.17969 0.15235,-0.37891 l -1.33204,-3.52734 c -0.0312,-0.0781 -0.0898,-0.11719 -0.16796,-0.11719"
       id="path10"
       inkscape:connector-curvature="0" />
    <path
       style="fill:#3f3f42;fill-opacity:1;fill-rule:nonzero;stroke:none"
       d="m 204.47656,541.66016 0.1836,6.98046 c 0.0312,1.10938 0.22656,1.72657 0.58203,1.84766 0.0312,0.0117 0.24609,0.0391 0.64843,0.082 0.33204,0.0469 0.4961,0.10156 0.4961,0.16797 0,0.10938 -0.125,0.16406 -0.37891,0.16406 -0.42187,0 -0.86328,-0.008 -1.3164,-0.0234 -0.45313,-0.0156 -0.70313,-0.0274 -0.7461,-0.0274 0.008,0 -0.19922,0.0117 -0.63281,0.0274 -0.43359,0.0156 -0.82031,0.0234 -1.16406,0.0234 -0.2461,0 -0.36719,-0.0547 -0.36719,-0.16406 0,-0.0781 0.14453,-0.12891 0.43359,-0.14844 0.19922,-0.0234 0.39453,-0.0469 0.58203,-0.0703 0.21094,-0.0664 0.34766,-0.24219 0.41407,-0.53125 0.0586,-0.25391 0.0898,-0.76562 0.10156,-1.52734 l 0.14844,-9.84375 c 0.0117,-0.37891 0.0859,-0.56641 0.21875,-0.56641 0.0859,0 0.29297,0.17188 0.61328,0.51563 0.91015,0.97656 2.6289,2.7539 5.15625,5.33593 1.1289,1.17578 2.34765,2.44141 3.65625,3.79297 h 0.082 l -0.16406,-7.46875 c -0.0117,-0.41015 -0.0352,-0.6914 -0.0664,-0.84375 -0.0898,-0.33594 -0.25781,-0.55078 -0.5,-0.65234 -0.16797,-0.0625 -0.46094,-0.0977 -0.88281,-0.0977 -0.17578,0 -0.26563,-0.0508 -0.26563,-0.15234 0,-0.0977 0.14453,-0.14844 0.4336,-0.14844 0.33203,0 0.73047,0.0117 1.19531,0.0273 0.46875,0.0156 0.73828,0.0234 0.81641,0.0234 0.0117,0 0.20703,-0.008 0.58203,-0.0234 0.3789,-0.0156 0.72656,-0.0273 1.04687,-0.0273 0.25391,0 0.38281,0.0508 0.38281,0.14844 0,0.10156 -0.10156,0.15234 -0.29687,0.15234 -0.55859,0 -0.89453,0.1836 -1.01563,0.54688 -0.0547,0.20312 -0.0898,0.5039 -0.10156,0.91797 l -0.17969,10.49218 c -0.0117,0.33985 -0.0859,0.51172 -0.21875,0.51172 -0.12109,0 -0.30859,-0.12109 -0.5664,-0.36328 -1.0625,-1.05469 -2.69922,-2.68359 -4.90235,-4.89062 -0.7539,-0.74219 -1.60156,-1.625 -2.54687,-2.64063 -0.47656,-0.52344 -0.94531,-1.03906 -1.41016,-1.54687 z m 0,0"
       id="path12"
       inkscape:connector-curvature="0" />
    <path
       style="fill:#3f3f42;fill-opacity:1;fill-rule:nonzero;stroke:none"
       d="m 225.70703,541.66016 0.18359,6.98046 c 0.0352,1.10938 0.22657,1.72657 0.58204,1.84766 0.0352,0.0117 0.25,0.0391 0.64843,0.082 0.33203,0.0469 0.5,0.10156 0.5,0.16797 0,0.10938 -0.1289,0.16406 -0.38281,0.16406 -0.42187,0 -0.85937,-0.008 -1.3125,-0.0234 -0.45312,-0.0156 -0.70312,-0.0274 -0.75,-0.0274 0.0117,0 -0.19922,0.0117 -0.63281,0.0274 -0.42969,0.0156 -0.81641,0.0234 -1.16016,0.0234 -0.24609,0 -0.36719,-0.0547 -0.36719,-0.16406 0,-0.0781 0.14454,-0.12891 0.4336,-0.14844 0.19922,-0.0234 0.39062,-0.0469 0.58203,-0.0703 0.20703,-0.0664 0.34766,-0.24219 0.41406,-0.53125 0.0547,-0.25391 0.0898,-0.76562 0.0977,-1.52734 l 0.15234,-9.84375 c 0.0117,-0.37891 0.082,-0.56641 0.21485,-0.56641 0.0898,0 0.29296,0.17188 0.61718,0.51563 0.90625,0.97656 2.625,2.7539 5.15235,5.33593 1.13281,1.17578 2.35156,2.44141 3.66015,3.79297 h 0.082 l -0.16796,-7.46875 c -0.0117,-0.41015 -0.0312,-0.6914 -0.0664,-0.84375 -0.0859,-0.33594 -0.25391,-0.55078 -0.49609,-0.65234 -0.16797,-0.0625 -0.46094,-0.0977 -0.88282,-0.0977 -0.17578,0 -0.26562,-0.0508 -0.26562,-0.15234 0,-0.0977 0.14453,-0.14844 0.43359,-0.14844 0.33203,0 0.73047,0.0117 1.19531,0.0273 0.46485,0.0156 0.73829,0.0234 0.81641,0.0234 0.008,0 0.20313,-0.008 0.58203,-0.0234 0.375,-0.0156 0.72266,-0.0273 1.04688,-0.0273 0.2539,0 0.38281,0.0508 0.38281,0.14844 0,0.10156 -0.10156,0.15234 -0.30078,0.15234 -0.55469,0 -0.89063,0.1836 -1.01563,0.54688 -0.0547,0.20312 -0.0859,0.5039 -0.0977,0.91797 l -0.1836,10.49218 c -0.0117,0.33985 -0.082,0.51172 -0.21484,0.51172 -0.125,0 -0.3125,-0.12109 -0.56641,-0.36328 -1.0625,-1.05469 -2.69922,-2.68359 -4.90625,-4.89062 -0.7539,-0.74219 -1.60156,-1.625 -2.54297,-2.64063 -0.47656,-0.52344 -0.94531,-1.03906 -1.41406,-1.54687 z m 0,0"
       id="path14"
       inkscape:connector-curvature="0" />
    <path
       style="fill:#3f3f42;fill-opacity:1;fill-rule:nonzero;stroke:none"
       d="m 246.17578,546.08203 v -2.92578 c 0,-1.98438 -0.0117,-3.16016 -0.0312,-3.52734 -0.0352,-0.53125 -0.22266,-0.83985 -0.56641,-0.92969 -0.1875,-0.043 -0.3789,-0.0664 -0.57421,-0.0664 -0.19532,0 -0.28907,-0.0547 -0.28907,-0.16797 0,-0.0859 0.12891,-0.13281 0.39844,-0.13281 0.21875,0 0.60156,0.0117 1.13672,0.0273 0.53906,0.0156 0.87891,0.0234 1.02344,0.0234 0.12109,0 0.43359,-0.008 0.92968,-0.0234 0.5,-0.0156 0.86719,-0.0273 1.09766,-0.0273 0.23438,0 0.35156,0.0469 0.35156,0.13281 0,0.11328 -0.0781,0.16797 -0.23828,0.16797 -0.16015,0 -0.33203,0.0156 -0.51953,0.0508 -0.37109,0.0664 -0.57422,0.37891 -0.60547,0.94532 -0.0234,0.36718 -0.0352,1.54296 -0.0352,3.52734 v 2.92578 c 0,1.98438 0.0234,3.19531 0.0664,3.64063 0.043,0.48828 0.26563,0.75781 0.66016,0.8164 0.3164,0.043 0.59765,0.0664 0.83984,0.0664 0.17578,0 0.26172,0.043 0.26172,0.13281 0,0.10938 -0.10156,0.16406 -0.3125,0.16406 -0.42187,0 -0.9375,-0.008 -1.53906,-0.0234 -0.60547,-0.0156 -0.95703,-0.0274 -1.05469,-0.0274 -0.10156,0 -0.41406,0.0117 -0.94141,0.0274 -0.52734,0.0156 -0.91015,0.0234 -1.15625,0.0234 -0.21875,0 -0.33203,-0.0547 -0.33203,-0.16406 0,-0.0781 0.1211,-0.12891 0.36719,-0.14844 0.16406,-0.0234 0.33203,-0.0391 0.5,-0.0508 0.26563,-0.0586 0.42578,-0.33203 0.48047,-0.82422 0.0547,-0.49218 0.082,-1.70312 0.082,-3.63281"
       id="path16"
       inkscape:connector-curvature="0" />
    <path
       style="fill:#3f3f42;fill-opacity:1;fill-rule:nonzero;stroke:none"
       d="m 261.83984,550.12109 -4.1914,-10.15625 c -0.17578,-0.43359 -0.35938,-0.73828 -0.54688,-0.91797 -0.15625,-0.14453 -0.39453,-0.25781 -0.71484,-0.34765 -0.16797,-0.043 -0.38281,-0.0664 -0.64844,-0.0664 -0.13281,0 -0.19922,-0.0508 -0.19922,-0.15234 0,-0.0977 0.14063,-0.14844 0.42969,-0.14844 0.32422,0 0.76172,0.0117 1.32422,0.0273 0.55859,0.0156 0.92187,0.0234 1.08984,0.0234 0.0977,0 0.38672,-0.008 0.86328,-0.0234 0.47657,-0.0156 0.8711,-0.0273 1.17969,-0.0273 0.25391,0 0.38281,0.0508 0.38281,0.14844 0,0.10156 -0.082,0.15234 -0.25,0.15234 -0.32031,0 -0.53906,0.0391 -0.64843,0.11719 -0.10938,0.0742 -0.16407,0.19141 -0.16407,0.34766 0,0.17578 0.125,0.60546 0.38282,1.28125 l 2.85546,7.54687 h 0.0703 c 0.95312,-2.39453 2.04297,-5.15234 3.27343,-8.28125 0.10157,-0.27344 0.14844,-0.48047 0.14844,-0.61328 0,-0.16797 -0.0742,-0.27344 -0.23047,-0.32422 -0.15625,-0.0508 -0.37109,-0.0742 -0.64843,-0.0742 -0.1875,0 -0.28516,-0.043 -0.28516,-0.13281 0,-0.10938 0.15625,-0.16797 0.46875,-0.16797 0.33203,0 0.69922,0.0117 1.10547,0.0273 0.40234,0.0156 0.61719,0.0234 0.64062,0.0234 0.0742,0 0.3086,-0.008 0.69532,-0.0234 0.38671,-0.0156 0.67578,-0.0273 0.86718,-0.0273 0.23047,0 0.34766,0.0508 0.34766,0.14844 0,0.10156 -0.0898,0.15234 -0.26563,0.15234 -0.34375,0 -0.61718,0.0664 -0.8164,0.19922 -0.26563,0.17969 -0.57422,0.67578 -0.92969,1.49609 -0.35547,0.82032 -1.01562,2.32032 -1.97656,4.50782 l -2.21485,5.07031 c -0.24218,0.54297 -0.39062,0.87109 -0.44531,0.98047 -0.10156,0.16797 -0.20703,0.25 -0.3164,0.25 -0.10157,0 -0.19532,-0.0742 -0.28516,-0.21485 -0.0547,-0.10156 -0.17188,-0.36718 -0.34766,-0.80078"
       id="path18"
       inkscape:connector-curvature="0" />
    <path
       style="fill:#3f3f42;fill-opacity:1;fill-rule:nonzero;stroke:none"
       d="m 276.70312,546.08203 v -2.92578 c 0,-1.98438 -0.0117,-3.16016 -0.0312,-3.52734 -0.0351,-0.53125 -0.27343,-0.84766 -0.71484,-0.94532 -0.15625,-0.0351 -0.37109,-0.0508 -0.64844,-0.0508 -0.1914,0 -0.28515,-0.0508 -0.28515,-0.15234 0,-0.0977 0.12109,-0.14844 0.36718,-0.14844 0.33204,0 0.78516,0.0117 1.35547,0.0273 0.57032,0.0156 0.91797,0.0234 1.03907,0.0234 2.625,0 4.01171,-0.004 4.15625,-0.0156 0.28906,-0.0234 0.52734,-0.0547 0.71484,-0.10157 0.1875,-0.043 0.27734,-0.0664 0.26562,-0.0664 0.0664,0 0.10157,0.0508 0.10157,0.15234 0,0.008 -0.0195,0.10938 -0.0508,0.29688 -0.0352,0.22265 -0.0586,0.48437 -0.0742,0.78125 -0.0195,0.30078 -0.0508,0.66797 -0.0937,1.09765 -0.0234,0.1211 -0.0781,0.1836 -0.16797,0.1836 -0.0781,0 -0.125,-0.0625 -0.14063,-0.1836 -0.0156,-0.12109 -0.0312,-0.23828 -0.043,-0.34765 -0.008,-0.11328 -0.0312,-0.21094 -0.0664,-0.30078 -0.13281,-0.32032 -0.50391,-0.51954 -1.11719,-0.59766 -0.37891,-0.043 -1.16797,-0.0664 -2.37109,-0.0664 -0.0781,0 -0.11719,0.0547 -0.11719,0.16797 v 4.20703 c 0,0.1211 0.0391,0.17969 0.11719,0.17969 1.52734,0 2.41797,-0.008 2.67187,-0.0312 0.19141,-0.0117 0.33594,-0.0273 0.4336,-0.0508 0.16796,-0.043 0.28906,-0.11328 0.36718,-0.19922 0.13282,-0.14453 0.22266,-0.21875 0.26953,-0.21875 0.0781,0 0.11719,0.0469 0.11719,0.13281 0,0.0156 -0.0195,0.125 -0.0508,0.33594 -0.0352,0.25391 -0.0625,0.54688 -0.0859,0.87891 -0.043,0.63281 -0.0664,1.0039 -0.0664,1.11328 0,0.21094 -0.0508,0.3164 -0.14844,0.3164 -0.10156,0 -0.15234,-0.0586 -0.15234,-0.17187 0,-0.11719 -0.0195,-0.30859 -0.0664,-0.57422 -0.0898,-0.37891 -0.39844,-0.59375 -0.93359,-0.64844 -0.3125,-0.0351 -1.10157,-0.0508 -2.3711,-0.0508 -0.0664,0 -0.10156,0.0547 -0.10156,0.16797 v 3.89063 c 0.0234,0.58593 0.15234,0.96484 0.39453,1.13671 0.23828,0.17188 0.77344,0.25782 1.60938,0.25782 0.75781,0 1.28125,-0.0664 1.5664,-0.19922 0.39063,-0.17578 0.64453,-0.58594 0.75391,-1.23047 0.0312,-0.16406 0.0937,-0.25 0.18359,-0.25 0.0859,0 0.13281,0.10156 0.13281,0.30078 0,0.67578 -0.0742,1.29297 -0.21484,1.84375 -0.0586,0.20313 -0.13672,0.32422 -0.23437,0.36719 -0.10157,0.043 -0.32032,0.0664 -0.66407,0.0664 -0.96484,0 -1.92578,-0.0156 -2.8789,-0.0508 -0.95313,-0.0312 -1.52735,-0.0508 -1.72657,-0.0508 -0.10156,0 -0.41406,0.0117 -0.9414,0.0274 -0.52735,0.0156 -0.91406,0.0234 -1.15625,0.0234 -0.22266,0 -0.33203,-0.0547 -0.33203,-0.16406 0,-0.0781 0.12109,-0.12891 0.36718,-0.14844 0.16407,-0.0234 0.33204,-0.0391 0.4961,-0.0508 0.2539,-0.0586 0.41797,-0.35937 0.48437,-0.91406 0.0547,-0.43359 0.082,-1.61328 0.082,-3.54297"
       id="path20"
       inkscape:connector-curvature="0" />
    <path
       style="fill:#3f3f42;fill-opacity:1;fill-rule:nonzero;stroke:none"
       d="m 294.66016,539.41406 v 5.05469 c 0,0.16797 0.0508,0.26562 0.15234,0.30078 0.30859,0.10938 0.73047,0.16406 1.26172,0.16406 0.53125,0 0.92578,-0.0937 1.17969,-0.28125 0.65625,-0.47656 0.98046,-1.30859 0.98046,-2.49609 0,-1.05078 -0.29687,-1.85547 -0.89453,-2.41016 -0.48047,-0.42187 -1.02734,-0.63281 -1.64843,-0.63281 -0.53125,0 -0.84766,0.0352 -0.94532,0.10156 -0.0586,0.0352 -0.0859,0.0977 -0.0859,0.19922 m -1.96094,6.66797 v -2.92578 c 0,-1.98438 -0.0117,-3.16016 -0.0352,-3.52734 -0.0312,-0.53125 -0.26953,-0.84766 -0.71484,-0.94532 -0.15235,-0.0351 -0.3711,-0.0508 -0.64844,-0.0508 -0.1875,0 -0.28125,-0.0508 -0.28125,-0.15234 0,-0.0977 0.12109,-0.14844 0.36719,-0.14844 0.34375,0 0.79297,0.0117 1.34375,0.0273 0.55469,0.0156 0.86719,0.0234 0.93359,0.0234 0.1875,0 0.58203,-0.008 1.1875,-0.0234 0.60547,-0.0156 0.98828,-0.0273 1.15625,-0.0273 1.33985,0 2.35938,0.23828 3.0586,0.71484 0.27734,0.19141 0.52343,0.47266 0.73046,0.84766 0.26954,0.44531 0.40235,0.92188 0.40235,1.42969 0,1.30078 -0.73438,2.53906 -2.19531,3.72656 1.20703,1.53125 1.87109,2.35938 1.99609,2.49609 0.64062,0.80469 1.17969,1.4336 1.60937,1.87891 0.60938,0.62891 1.23047,1.00781 1.86329,1.12891 0.13281,0.0117 0.26171,0.0195 0.38281,0.0351 0.1875,0.0195 0.28125,0.0703 0.28125,0.14844 0,0.10938 -0.10547,0.16406 -0.3125,0.16406 h -1.58203 c -0.79688,0 -1.39063,-0.10547 -1.77735,-0.3125 -0.54297,-0.28906 -1.30468,-1.10547 -2.27734,-2.44531 -0.47656,-0.67578 -1.02734,-1.44141 -1.64844,-2.29687 -0.0664,-0.0781 -0.16406,-0.11719 -0.29687,-0.11719 h -1.44922 c -0.0859,0 -0.13281,0.0469 -0.13281,0.13281 v 0.23438 c 0,1.87109 0.0273,3.04687 0.0859,3.53125 0.0664,0.5625 0.28125,0.86328 0.64844,0.91015 0.32813,0.043 0.60156,0.0664 0.8125,0.0664 0.13281,0 0.19922,0.043 0.19922,0.13281 0,0.10938 -0.10938,0.16406 -0.33203,0.16406 -0.375,0 -0.8711,-0.008 -1.48828,-0.0234 -0.61328,-0.0156 -0.9336,-0.0274 -0.95703,-0.0274 -0.0781,0 -0.3711,0.0117 -0.87891,0.0274 -0.51172,0.0156 -0.89453,0.0234 -1.14844,0.0234 -0.22265,0 -0.33203,-0.0547 -0.33203,-0.16406 0,-0.0781 0.12109,-0.12891 0.36719,-0.14844 0.16406,-0.0234 0.33203,-0.0391 0.49609,-0.0508 0.25391,-0.0586 0.41797,-0.35937 0.48438,-0.91406 0.0547,-0.43359 0.082,-1.61328 0.082,-3.54297"
       id="path22"
       inkscape:connector-curvature="0" />
    <path
       style="fill:#3f3f42;fill-opacity:1;fill-rule:nonzero;stroke:none"
       d="m 312.25391,551.13672 c -0.96485,0 -1.77735,-0.14453 -2.42969,-0.4336 -0.21094,-0.0898 -0.31641,-0.27734 -0.31641,-0.5625 0,-0.60156 0.0274,-1.32421 0.082,-2.17968 0.0234,-0.28907 0.0899,-0.4336 0.20313,-0.4336 0.10937,0 0.16406,0.0937 0.16406,0.28516 0,0.23047 0.0508,0.51172 0.14844,0.84766 0.33594,1.11718 1.125,1.67578 2.3789,1.67578 0.69922,0 1.25782,-0.20313 1.67969,-0.61328 0.36719,-0.36329 0.55078,-0.79297 0.55078,-1.28125 0,-0.91797 -0.54687,-1.80469 -1.63281,-2.66016 l -0.76562,-0.59766 c -1.63672,-1.28515 -2.46094,-2.60156 -2.46094,-3.9414 0,-0.91797 0.35547,-1.67188 1.0664,-2.26172 0.71094,-0.58594 1.63672,-0.87891 2.77735,-0.87891 0.71875,0 1.45703,0.0937 2.21094,0.28125 0.15625,0.0469 0.23437,0.10938 0.23437,0.19922 0,-0.0195 -0.0117,0.17578 -0.0352,0.58984 -0.0234,0.41797 -0.0312,0.88672 -0.0312,1.40625 0,0.33204 -0.0625,0.5 -0.18359,0.5 -0.11328,0 -0.16797,-0.10156 -0.16797,-0.30078 0,-0.36718 -0.14453,-0.73047 -0.43359,-1.09765 -0.42969,-0.54297 -1.03516,-0.81641 -1.8125,-0.81641 -0.60938,0 -1.08985,0.16016 -1.44531,0.47656 -0.35547,0.31641 -0.53125,0.73047 -0.53125,1.23828 0,0.38672 0.125,0.75391 0.375,1.10547 0.25,0.34766 0.71093,0.77735 1.38671,1.28907 l 0.46485,0.34765 c 1,0.75391 1.70312,1.44922 2.11328,2.08594 0.41016,0.64062 0.61328,1.35937 0.61328,2.15625 0,1.25391 -0.51953,2.21484 -1.5625,2.89062 -0.69531,0.45704 -1.57812,0.6836 -2.64062,0.6836"
       id="path24"
       inkscape:connector-curvature="0" />
    <path
       style="fill:#3f3f42;fill-opacity:1;fill-rule:nonzero;stroke:none"
       d="m 326.91797,545.73437 h 3.05859 c 0.0781,0 0.10547,-0.0352 0.082,-0.10156 l -1.49609,-4.10547 c -0.0195,-0.10156 -0.0508,-0.15234 -0.082,-0.15234 -0.043,0 -0.0781,0.0508 -0.10156,0.15234 l -1.52735,4.08985 c -0.0234,0.0781 0,0.11718 0.0664,0.11718 m 3.375,0.82813 h -3.70703 c -0.0664,0 -0.11719,0.0469 -0.15235,0.13281 l -0.89453,2.37891 c -0.16797,0.4414 -0.25,0.78125 -0.25,1.01562 0,0.34375 0.21875,0.51563 0.66406,0.51563 h 0.25 c 0.16407,0 0.25,0.043 0.25,0.13281 0,0.10938 -0.0976,0.16406 -0.28515,0.16406 -0.17578,0 -0.47266,-0.008 -0.88672,-0.0234 -0.41797,-0.0156 -0.70703,-0.0274 -0.875,-0.0274 -0.96484,0.0352 -1.61719,0.0508 -1.96094,0.0508 -0.21094,0 -0.3164,-0.0547 -0.3164,-0.16406 0,-0.0898 0.0664,-0.13281 0.19921,-0.13281 0.17579,0 0.34766,-0.0117 0.51563,-0.0352 0.35547,-0.043 0.64453,-0.19922 0.86328,-0.46484 0.17969,-0.21094 0.36328,-0.55469 0.55078,-1.03125 l 4.17188,-10.44141 c 0.17578,-0.4414 0.33203,-0.66406 0.46484,-0.66406 0.125,0 0.26172,0.17578 0.41797,0.53125 1.01953,2.57031 2.39453,5.98047 4.12109,10.22656 0.46875,1.09766 0.95313,1.69922 1.46485,1.8125 0.19922,0.043 0.43359,0.0664 0.69922,0.0664 0.14453,0 0.21484,0.043 0.21484,0.13281 0,0.0664 -0.0547,0.10938 -0.16797,0.13281 -0.10937,0.0195 -0.30859,0.0312 -0.59766,0.0312 -1.375,0 -2.42187,-0.0117 -3.14062,-0.0312 -0.33203,-0.0117 -0.5,-0.0547 -0.5,-0.13281 0,-0.0898 0.0781,-0.14062 0.23437,-0.15234 0.17579,-0.0547 0.22657,-0.17969 0.14844,-0.37891 l -1.33203,-3.52734 c -0.0312,-0.0781 -0.0859,-0.11719 -0.16406,-0.11719"
       id="path26"
       inkscape:connector-curvature="0" />
    <path
       style="fill:#3f3f42;fill-opacity:1;fill-rule:nonzero;stroke:none"
       d="m 344.99219,539.41406 v 5.05469 c 0,0.16797 0.0469,0.26562 0.14843,0.30078 0.3086,0.10938 0.73047,0.16406 1.26563,0.16406 0.53125,0 0.92187,-0.0937 1.17969,-0.28125 0.65234,-0.47656 0.98047,-1.30859 0.98047,-2.49609 0,-1.05078 -0.30079,-1.85547 -0.89844,-2.41016 -0.47656,-0.42187 -1.02344,-0.63281 -1.64453,-0.63281 -0.53516,0 -0.84766,0.0352 -0.94922,0.10156 -0.0547,0.0352 -0.082,0.0977 -0.082,0.19922 m -1.96485,6.66797 v -2.92578 c 0,-1.98438 -0.008,-3.16016 -0.0312,-3.52734 -0.0351,-0.53125 -0.27343,-0.84766 -0.71484,-0.94532 -0.15625,-0.0351 -0.37109,-0.0508 -0.64844,-0.0508 -0.1875,0 -0.28515,-0.0508 -0.28515,-0.15234 0,-0.0977 0.12109,-0.14844 0.36718,-0.14844 0.34375,0 0.79297,0.0117 1.34766,0.0273 0.55469,0.0156 0.86328,0.0234 0.92969,0.0234 0.1875,0 0.58593,-0.008 1.1875,-0.0234 0.60547,-0.0156 0.99218,-0.0273 1.16015,-0.0273 1.33985,0 2.35938,0.23828 3.0586,0.71484 0.27734,0.19141 0.51953,0.47266 0.73047,0.84766 0.26562,0.44531 0.39843,0.92188 0.39843,1.42969 0,1.30078 -0.73047,2.53906 -2.19531,3.72656 1.21094,1.53125 1.875,2.35938 1.99609,2.49609 0.64063,0.80469 1.17969,1.4336 1.61329,1.87891 0.60937,0.62891 1.23046,1.00781 1.86328,1.12891 0.13281,0.0117 0.25781,0.0195 0.38281,0.0351 0.1875,0.0195 0.28125,0.0703 0.28125,0.14844 0,0.10938 -0.10547,0.16406 -0.31641,0.16406 h -1.57812 c -0.80078,0 -1.39453,-0.10547 -1.78125,-0.3125 -0.54297,-0.28906 -1.30078,-1.10547 -2.27735,-2.44531 -0.47656,-0.67578 -1.02343,-1.44141 -1.64453,-2.29687 -0.0703,-0.0781 -0.16797,-0.11719 -0.30078,-0.11719 H 345.125 c -0.0898,0 -0.13281,0.0469 -0.13281,0.13281 v 0.23438 c 0,1.87109 0.0273,3.04687 0.082,3.53125 0.0664,0.5625 0.28125,0.86328 0.64844,0.91015 0.33203,0.043 0.60546,0.0664 0.8164,0.0664 0.13281,0 0.19922,0.043 0.19922,0.13281 0,0.10938 -0.11328,0.16406 -0.33203,0.16406 -0.37891,0 -0.875,-0.008 -1.48828,-0.0234 -0.61719,-0.0156 -0.9375,-0.0274 -0.95703,-0.0274 -0.0781,0 -0.3711,0.0117 -0.88282,0.0274 -0.50781,0.0156 -0.89062,0.0234 -1.14843,0.0234 -0.21875,0 -0.33203,-0.0547 -0.33203,-0.16406 0,-0.0781 0.12109,-0.12891 0.36718,-0.14844 0.16797,-0.0234 0.33203,-0.0391 0.5,-0.0508 0.25391,-0.0586 0.41407,-0.35937 0.48047,-0.91406 0.0547,-0.43359 0.082,-1.61328 0.082,-3.54297"
       id="path28"
       inkscape:connector-curvature="0" />
    <path
       style="fill:#3f3f42;fill-opacity:1;fill-rule:nonzero;stroke:none"
       d="m 362.92969,547.96094 v -1.36328 c 0,-0.58594 -0.125,-1.16797 -0.37891,-1.7461 -0.0664,-0.13281 -0.50391,-0.85937 -1.30859,-2.17969 -0.80078,-1.3164 -1.34375,-2.1875 -1.6211,-2.60937 -0.41015,-0.60938 -0.79297,-1.01563 -1.14453,-1.21484 -0.25781,-0.14454 -0.48828,-0.21485 -0.69922,-0.21485 -0.16797,0 -0.25,-0.0508 -0.25,-0.15234 0,-0.0977 0.10547,-0.14844 0.31641,-0.14844 0.0781,0 0.39453,0.0117 0.95703,0.0273 0.55859,0.0156 0.9375,0.0234 1.13672,0.0234 0.0898,0 0.33984,-0.008 0.75,-0.0234 0.41016,-0.0156 0.75391,-0.0273 1.03125,-0.0273 0.16406,0 0.25,0.0508 0.25,0.14844 0,0.0586 -0.125,0.12109 -0.36719,0.18359 -0.15625,0.0352 -0.23437,0.13672 -0.23437,0.30078 0,0.0977 0.0664,0.28907 0.19922,0.56641 0.0469,0.0977 0.98828,1.75391 2.82812,4.97266 0.75391,-1.35547 1.58594,-2.87891 2.49219,-4.57422 0.15625,-0.34375 0.23437,-0.63282 0.23437,-0.86719 0,-0.21875 -0.10937,-0.35547 -0.32422,-0.40625 -0.21484,-0.0508 -0.32421,-0.10547 -0.32421,-0.17578 0,-0.0977 0.0937,-0.14844 0.28125,-0.14844 0.1914,0 0.45703,0.0117 0.80859,0.0273 0.34766,0.0156 0.60156,0.0234 0.75781,0.0234 0.1211,0 0.42188,-0.008 0.90625,-0.0234 0.48047,-0.0156 0.76953,-0.0273 0.8711,-0.0273 0.19921,0 0.30078,0.0469 0.30078,0.13281 0,0.11328 -0.10938,0.16797 -0.32813,0.16797 -0.21484,0 -0.45312,0.0664 -0.71484,0.19922 -0.26172,0.13281 -0.56641,0.40625 -0.91016,0.81641 -0.26562,0.32031 -0.82812,1.1914 -1.67578,2.60937 -0.85156,1.41797 -1.35547,2.3086 -1.50781,2.67578 -0.16797,0.39844 -0.25,0.95313 -0.25,1.66407 v 1.36328 c 0,0.97656 0.0234,1.60547 0.082,1.89453 0.0664,0.41015 0.28516,0.63672 0.65625,0.68359 0.32422,0.043 0.60156,0.0664 0.83594,0.0664 0.17968,0 0.26953,0.043 0.26953,0.13281 0,0.10938 -0.11719,0.16406 -0.34766,0.16406 -0.40234,0 -0.89844,-0.008 -1.49609,-0.0234 -0.60156,-0.0156 -0.94922,-0.0234 -1.05078,-0.0234 -0.1211,0 -0.44141,0.008 -0.96485,0.0234 -0.51953,0.0156 -0.89062,0.0234 -1.11328,0.0234 -0.24219,0 -0.36328,-0.0547 -0.36328,-0.16406 0,-0.0664 0.12109,-0.11719 0.36328,-0.14844 0.15625,-0.0234 0.31641,-0.0391 0.48438,-0.0508 0.30859,-0.0664 0.48047,-0.375 0.51562,-0.91797 0.0312,-0.47265 0.0469,-1.02734 0.0469,-1.66015"
       id="path30"
       inkscape:connector-curvature="0" />
  </g>
</svg>
